<svg id="OBJECTS" xmlns="http://www.w3.org/2000/svg" viewBox="0 0 440.15 100"><path d="M219.23,57.17c-.55-3.61-3.5-9.74-12.91-9.74-6.45,0-10.61,4-10.61,8.32,0,3.72,2.3,6.45,7.66,7.44l10.39,2c14.77,2.74,22.43,12.26,22.43,23.3C236.19,100.6,226,113,207.53,113c-21.44,0-30.63-13.9-31.73-24.83l15.86-3.83c.66,7.11,5.47,13.34,16.08,13.34,6.79,0,10.94-3.28,10.94-8.09,0-3.94-3.17-6.78-8.31-7.77l-10.61-2c-13.13-2.51-21.11-11.26-21.11-22.75,0-14.66,12.91-24.94,27.78-24.94,19.36,0,26.69,11.6,28.33,20.67Z" transform="translate(-32.19 -21.77)"/><path d="M262,111.32H245.41V57h16.08v6.24c3-5.15,9.63-7.66,15.21-7.66,13.67,0,19.8,9.73,19.8,21.66v34.13H279.87V80c0-5.36-2.84-9.41-8.86-9.41-5.47,0-9,4-9,9.52Z" transform="translate(-32.19 -21.77)"/><path d="M315.92,30.59a9.74,9.74,0,1,1-9.63,9.73A9.77,9.77,0,0,1,315.92,30.59Zm-8.21,80.73V57h16.63v54.37Z" transform="translate(-32.19 -21.77)"/><path d="M344.15,30.59a9.74,9.74,0,1,1-9.63,9.73A9.77,9.77,0,0,1,344.15,30.59Zm-8.21,80.73V57h16.63v54.37Z" transform="translate(-32.19 -21.77)"/><path d="M397.22,111.32H380.48L358.17,57h18.05l12.58,33.8L400.39,57h17.5Z" transform="translate(-32.19 -21.77)"/><path d="M471.36,95.67c-2.63,9.41-11.27,17.29-25.05,17.29-15,0-28.33-10.72-28.33-29,0-17.5,13-28.66,27.13-28.66,16.84,0,27.23,10.39,27.23,27.89a34.35,34.35,0,0,1-.33,5.14H434.17c.32,6.13,5.9,10.51,12.36,10.51,6,0,9.4-2.85,10.94-7.11Zm-15.1-18c-.22-4.15-3.06-9.18-10.94-9.18-7,0-10.5,5.14-10.83,9.18Z" transform="translate(-32.19 -21.77)"/><path d="M82.19,121.77c3.89-18,7.42-28.5,14.46-35.54s17.59-10.56,35.54-14.46c-18-3.89-28.5-7.42-35.54-14.46S86.08,39.72,82.19,21.77c-3.9,18-7.42,28.5-14.46,35.54S50.14,67.88,32.19,71.77c18,3.9,28.5,7.42,35.54,14.46S78.29,103.82,82.19,121.77Z" transform="translate(-32.19 -21.77)"/><path d="M32.19,86.54v35.23H67.42A35.23,35.23,0,0,0,32.19,86.54Z" transform="translate(-32.19 -21.77)"/><path d="M132.19,57V21.77H97A35.23,35.23,0,0,0,132.19,57Z" transform="translate(-32.19 -21.77)"/></svg>